<svg xmlns="http://www.w3.org/2000/svg" xmlns:xlink="http://www.w3.org/1999/xlink" width="500" zoomAndPan="magnify" viewBox="0 0 375 374.999991" height="500" preserveAspectRatio="xMidYMid meet" version="1.0"><defs><g/><clipPath id="f8a91187c3"><path d="M 14.0625 244.0625 L 181.234375 244.0625 L 181.234375 262.652344 L 14.0625 262.652344 Z M 14.0625 244.0625 " clip-rule="nonzero"/></clipPath><clipPath id="a8f0092f3e"><path d="M 202.996094 138.40625 L 370.167969 138.40625 L 370.167969 156.996094 L 202.996094 156.996094 Z M 202.996094 138.40625 " clip-rule="nonzero"/></clipPath></defs><g clip-path="url(#f8a91187c3)"><path fill="#000000" d="M 14.0625 244.0625 L 181.226562 244.0625 L 181.226562 262.652344 L 14.0625 262.652344 Z M 14.0625 244.0625 " fill-opacity="1" fill-rule="nonzero"/></g><g clip-path="url(#a8f0092f3e)"><path fill="#000000" d="M 202.996094 138.40625 L 370.160156 138.40625 L 370.160156 156.996094 L 202.996094 156.996094 Z M 202.996094 138.40625 " fill-opacity="1" fill-rule="nonzero"/></g><g fill="#000000" fill-opacity="1"><g transform="translate(11.174176, 210.862992)"><g><path d="M 0.96875 0 L 30.984375 -75.5625 L 47.828125 -75.5625 L 77.828125 0 L 59.484375 0 L 54.40625 -13.0625 L 24.390625 -13.0625 L 19.328125 0 Z M 28.828125 -26.5625 L 50.09375 -26.5625 L 39.40625 -54.1875 Z M 28.828125 -26.5625 "/></g></g></g><g fill="#000000" fill-opacity="1"><g transform="translate(112.327755, 210.862992)"><g><path d="M 9.0625 0 L 9.0625 -75.5625 L 38.640625 -75.5625 C 44.765625 -75.5625 50.054688 -74.445312 54.515625 -72.21875 C 58.972656 -69.988281 62.441406 -66.820312 64.921875 -62.71875 C 67.410156 -58.613281 68.65625 -53.789062 68.65625 -48.25 C 68.65625 -42.78125 67.410156 -37.992188 64.921875 -33.890625 C 62.441406 -29.796875 58.972656 -26.628906 54.515625 -24.390625 C 50.054688 -22.160156 44.765625 -21.046875 38.640625 -21.046875 L 26.234375 -21.046875 L 26.234375 0 Z M 26.125 -35.84375 L 37.25 -35.84375 C 41.707031 -35.84375 45.140625 -36.898438 47.546875 -39.015625 C 49.960938 -41.140625 51.171875 -44.179688 51.171875 -48.140625 C 51.171875 -52.097656 49.960938 -55.15625 47.546875 -57.3125 C 45.140625 -59.476562 41.707031 -60.5625 37.25 -60.5625 L 26.125 -60.5625 Z M 26.125 -35.84375 "/></g></g></g><g fill="#000000" fill-opacity="1"><g transform="translate(201.722447, 213.571386)"><g><path d="M 2.875 0 L 2.875 -23.921875 L 12.34375 -23.921875 C 14.863281 -23.921875 17.066406 -23.414062 18.953125 -22.40625 C 20.847656 -21.40625 22.320312 -20.003906 23.375 -18.203125 C 24.425781 -16.410156 24.953125 -14.328125 24.953125 -11.953125 C 24.953125 -9.566406 24.425781 -7.476562 23.375 -5.6875 C 22.320312 -3.894531 20.847656 -2.5 18.953125 -1.5 C 17.066406 -0.5 14.863281 0 12.34375 0 Z M 8.296875 -4.984375 L 12.234375 -4.984375 C 13.648438 -4.984375 14.890625 -5.273438 15.953125 -5.859375 C 17.023438 -6.441406 17.863281 -7.253906 18.46875 -8.296875 C 19.070312 -9.347656 19.375 -10.566406 19.375 -11.953125 C 19.375 -13.367188 19.070312 -14.59375 18.46875 -15.625 C 17.863281 -16.664062 17.019531 -17.476562 15.9375 -18.0625 C 14.851562 -18.644531 13.597656 -18.9375 12.171875 -18.9375 L 8.296875 -18.9375 Z M 8.296875 -4.984375 "/></g></g></g><g fill="#000000" fill-opacity="1"><g transform="translate(235.173008, 213.571386)"><g><path d="M 2.875 0 L 2.875 -23.921875 L 18.59375 -23.921875 L 18.59375 -19.34375 L 8.265625 -19.34375 L 8.265625 -14.390625 L 17.671875 -14.390625 L 17.671875 -9.84375 L 8.265625 -9.84375 L 8.265625 -4.609375 L 18.96875 -4.609375 L 18.96875 0 Z M 2.875 0 "/></g></g></g><g fill="#000000" fill-opacity="1"><g transform="translate(262.952157, 213.571386)"><g><path d="M 11.203125 0.484375 C 9.203125 0.484375 7.476562 0.15625 6.03125 -0.5 C 4.582031 -1.164062 3.460938 -2.109375 2.671875 -3.328125 C 1.890625 -4.546875 1.5 -5.976562 1.5 -7.625 L 6.828125 -7.625 C 6.828125 -6.476562 7.21875 -5.585938 8 -4.953125 C 8.789062 -4.316406 9.847656 -4 11.171875 -4 C 12.304688 -4 13.203125 -4.21875 13.859375 -4.65625 C 14.523438 -5.101562 14.859375 -5.726562 14.859375 -6.53125 C 14.859375 -7.375 14.457031 -8.054688 13.65625 -8.578125 C 12.863281 -9.097656 11.625 -9.539062 9.9375 -9.90625 C 7.132812 -10.5 5.0625 -11.398438 3.71875 -12.609375 C 2.375 -13.816406 1.703125 -15.390625 1.703125 -17.328125 C 1.703125 -19.515625 2.5 -21.238281 4.09375 -22.5 C 5.695312 -23.769531 7.875 -24.40625 10.625 -24.40625 C 12.519531 -24.40625 14.160156 -24.078125 15.546875 -23.421875 C 16.929688 -22.773438 18.003906 -21.863281 18.765625 -20.6875 C 19.535156 -19.519531 19.921875 -18.125 19.921875 -16.5 L 14.6875 -16.5 C 14.6875 -17.570312 14.332031 -18.414062 13.625 -19.03125 C 12.925781 -19.644531 11.953125 -19.953125 10.703125 -19.953125 C 9.554688 -19.953125 8.648438 -19.726562 7.984375 -19.28125 C 7.328125 -18.84375 7 -18.222656 7 -17.421875 C 7 -16.691406 7.363281 -16.078125 8.09375 -15.578125 C 8.820312 -15.078125 10.097656 -14.613281 11.921875 -14.1875 C 14.910156 -13.476562 17.0625 -12.53125 18.375 -11.34375 C 19.695312 -10.15625 20.359375 -8.617188 20.359375 -6.734375 C 20.359375 -4.472656 19.546875 -2.703125 17.921875 -1.421875 C 16.296875 -0.148438 14.054688 0.484375 11.203125 0.484375 Z M 11.203125 0.484375 "/></g></g></g><g fill="#000000" fill-opacity="1"><g transform="translate(291.92709, 213.571386)"><g><path d="M 2.875 0 L 2.875 -23.921875 L 8.296875 -23.921875 L 8.296875 0 Z M 2.875 0 "/></g></g></g><g fill="#000000" fill-opacity="1"><g transform="translate(310.174199, 213.571386)"><g><path d="M 14.015625 0.484375 C 11.578125 0.484375 9.410156 -0.046875 7.515625 -1.109375 C 5.628906 -2.171875 4.148438 -3.632812 3.078125 -5.5 C 2.003906 -7.363281 1.46875 -9.515625 1.46875 -11.953125 C 1.46875 -14.390625 1.992188 -16.539062 3.046875 -18.40625 C 4.109375 -20.28125 5.578125 -21.75 7.453125 -22.8125 C 9.335938 -23.875 11.488281 -24.40625 13.90625 -24.40625 C 15.84375 -24.40625 17.628906 -24.0625 19.265625 -23.375 C 20.910156 -22.6875 22.304688 -21.722656 23.453125 -20.484375 C 24.609375 -19.242188 25.425781 -17.78125 25.90625 -16.09375 L 20.0625 -16.09375 C 19.488281 -17.144531 18.671875 -17.957031 17.609375 -18.53125 C 16.554688 -19.113281 15.359375 -19.40625 14.015625 -19.40625 C 12.617188 -19.40625 11.382812 -19.085938 10.3125 -18.453125 C 9.25 -17.816406 8.414062 -16.9375 7.8125 -15.8125 C 7.207031 -14.695312 6.90625 -13.410156 6.90625 -11.953125 C 6.90625 -10.523438 7.195312 -9.25 7.78125 -8.125 C 8.375 -7.007812 9.207031 -6.128906 10.28125 -5.484375 C 11.351562 -4.835938 12.617188 -4.515625 14.078125 -4.515625 C 15.828125 -4.515625 17.285156 -4.957031 18.453125 -5.84375 C 19.617188 -6.726562 20.367188 -7.898438 20.703125 -9.359375 L 12.953125 -9.359375 L 12.953125 -13.5625 L 26.453125 -13.5625 C 26.585938 -11.507812 26.382812 -9.628906 25.84375 -7.921875 C 25.3125 -6.210938 24.492188 -4.726562 23.390625 -3.46875 C 22.285156 -2.207031 20.941406 -1.234375 19.359375 -0.546875 C 17.773438 0.140625 15.992188 0.484375 14.015625 0.484375 Z M 14.015625 0.484375 "/></g></g></g><g fill="#000000" fill-opacity="1"><g transform="translate(345.12801, 213.571386)"><g><path d="M 2.875 0 L 2.875 -23.921875 L 7.484375 -23.921875 L 18.046875 -9.359375 L 18.046875 -23.921875 L 23.4375 -23.921875 L 23.4375 0 L 18.828125 0 L 8.265625 -14.65625 L 8.265625 0 Z M 2.875 0 "/></g></g></g></svg>