<svg xmlns="http://www.w3.org/2000/svg" xmlns:xlink="http://www.w3.org/1999/xlink" width="500" zoomAndPan="magnify" viewBox="0 0 375 374.999991" height="500" preserveAspectRatio="xMidYMid meet" version="1.0"><defs><g/><clipPath id="504b000c88"><path d="M 0 168.800781 L 363.789062 168.800781 L 363.789062 211.007812 L 0 211.007812 Z M 0 168.800781 " clip-rule="nonzero"/></clipPath></defs><g fill="#000000" fill-opacity="1"><g transform="translate(187.219754, 267.673153)"><g><path d="M 73.515625 -161.4375 L 6.96875 -161.4375 L 6.96875 -157.59375 L 27.625 -157.59375 L 27.625 -3.84375 L 6.96875 -3.84375 L 6.96875 0 L 71.59375 0 L 71.59375 -3.84375 L 50.9375 -3.84375 L 50.9375 -74.234375 L 75.921875 -74.234375 C 82.960938 -74.234375 89.40625 -75.273438 95.25 -77.359375 C 101.09375 -79.441406 106.097656 -82.40625 110.265625 -86.25 C 114.429688 -90.09375 117.675781 -94.695312 120 -100.0625 C 122.320312 -105.425781 123.484375 -111.390625 123.484375 -117.953125 C 123.484375 -124.359375 122.320312 -130.242188 120 -135.609375 C 117.675781 -140.972656 114.351562 -145.578125 110.03125 -149.421875 C 105.707031 -153.265625 100.460938 -156.226562 94.296875 -158.3125 C 88.128906 -160.394531 81.203125 -161.4375 73.515625 -161.4375 Z M 50.9375 -78.078125 L 50.9375 -157.59375 L 73.515625 -157.59375 C 82.484375 -157.59375 89.488281 -154.910156 94.53125 -149.546875 C 99.570312 -144.179688 102.09375 -135.09375 102.09375 -122.28125 L 102.09375 -113.625 C 102.09375 -101.300781 99.609375 -92.296875 94.640625 -86.609375 C 89.679688 -80.921875 83.441406 -78.078125 75.921875 -78.078125 Z M 50.9375 -78.078125 "/></g></g></g><g fill="#000000" fill-opacity="1"><g transform="translate(22.271771, 271.222781)"><g><path d="M 5.375 -3.90625 L 5.375 0 L 59.546875 0 L 59.546875 -3.90625 L 30.75 -3.90625 L 46.125 -51 L 95.171875 -51 L 111.046875 -3.90625 L 85.90625 -3.90625 L 85.90625 0 L 157.40625 0 L 157.40625 -3.90625 L 136.171875 -3.90625 L 82.734375 -166.203125 L 79.796875 -166.203125 L 26.359375 -3.90625 Z M 70.53125 -124.703125 L 93.953125 -54.90625 L 47.59375 -54.90625 Z M 70.53125 -124.703125 "/></g></g></g><g clip-path="url(#504b000c88)"><path fill="#fafafa" d="M 0 168.800781 L 363.871094 168.800781 L 363.871094 211.007812 L 0 211.007812 Z M 0 168.800781 " fill-opacity="1" fill-rule="nonzero"/></g><g fill="#000000" fill-opacity="1"><g transform="translate(28.759979, 196.681965)"><g><path d="M 10.28125 -2.828125 L 4.140625 -2.828125 L 2.96875 0 L -0.171875 0 L 5.71875 -13.21875 L 8.75 -13.21875 L 14.65625 0 L 11.453125 0 Z M 9.3125 -5.15625 L 7.21875 -10.21875 L 5.125 -5.15625 Z M 9.3125 -5.15625 "/></g></g></g><g fill="#000000" fill-opacity="1"><g transform="translate(49.762414, 196.681965)"><g><path d="M 1.5625 -13.21875 L 4.625 -13.21875 L 4.625 -2.5 L 11.265625 -2.5 L 11.265625 0 L 1.5625 0 Z M 1.5625 -13.21875 "/></g></g></g><g fill="#000000" fill-opacity="1"><g transform="translate(67.705203, 196.681965)"><g><path d="M 11.8125 -2.453125 L 11.8125 0 L 1.5625 0 L 1.5625 -13.21875 L 11.5625 -13.21875 L 11.5625 -10.765625 L 4.609375 -10.765625 L 4.609375 -7.890625 L 10.75 -7.890625 L 10.75 -5.515625 L 4.609375 -5.515625 L 4.609375 -2.453125 Z M 11.8125 -2.453125 "/></g></g></g><g fill="#000000" fill-opacity="1"><g transform="translate(86.913399, 196.681965)"><g><path d="M 9.90625 0 L 6.703125 -4.59375 L 3.578125 0 L 0.0625 0 L 4.953125 -6.71875 L 0.296875 -13.21875 L 3.78125 -13.21875 L 6.8125 -8.9375 L 9.796875 -13.21875 L 13.109375 -13.21875 L 8.5 -6.84375 L 13.4375 0 Z M 9.90625 0 "/></g></g></g><g fill="#000000" fill-opacity="1"><g transform="translate(106.933728, 196.681965)"><g><path d="M 10.28125 -2.828125 L 4.140625 -2.828125 L 2.96875 0 L -0.171875 0 L 5.71875 -13.21875 L 8.75 -13.21875 L 14.65625 0 L 11.453125 0 Z M 9.3125 -5.15625 L 7.21875 -10.21875 L 5.125 -5.15625 Z M 9.3125 -5.15625 "/></g></g></g><g fill="#000000" fill-opacity="1"><g transform="translate(127.93616, 196.681965)"><g><path d="M 13.703125 -13.21875 L 13.703125 0 L 11.1875 0 L 4.59375 -8.03125 L 4.59375 0 L 1.5625 0 L 1.5625 -13.21875 L 4.09375 -13.21875 L 10.671875 -5.1875 L 10.671875 -13.21875 Z M 13.703125 -13.21875 "/></g></g></g><g fill="#000000" fill-opacity="1"><g transform="translate(149.731851, 196.681965)"><g><path d="M 1.5625 -13.21875 L 7.578125 -13.21875 C 9.015625 -13.21875 10.28125 -12.941406 11.375 -12.390625 C 12.476562 -11.847656 13.332031 -11.078125 13.9375 -10.078125 C 14.550781 -9.085938 14.859375 -7.929688 14.859375 -6.609375 C 14.859375 -5.285156 14.550781 -4.125 13.9375 -3.125 C 13.332031 -2.132812 12.476562 -1.363281 11.375 -0.8125 C 10.28125 -0.269531 9.015625 0 7.578125 0 L 1.5625 0 Z M 7.421875 -2.515625 C 8.742188 -2.515625 9.796875 -2.878906 10.578125 -3.609375 C 11.367188 -4.347656 11.765625 -5.347656 11.765625 -6.609375 C 11.765625 -7.867188 11.367188 -8.867188 10.578125 -9.609375 C 9.796875 -10.347656 8.742188 -10.71875 7.421875 -10.71875 L 4.625 -10.71875 L 4.625 -2.515625 Z M 7.421875 -2.515625 "/></g></g></g><g fill="#000000" fill-opacity="1"><g transform="translate(171.867493, 196.681965)"><g><path d="M 10 0 L 7.4375 -3.6875 L 4.625 -3.6875 L 4.625 0 L 1.5625 0 L 1.5625 -13.21875 L 7.296875 -13.21875 C 8.460938 -13.21875 9.476562 -13.019531 10.34375 -12.625 C 11.207031 -12.238281 11.867188 -11.6875 12.328125 -10.96875 C 12.796875 -10.257812 13.03125 -9.410156 13.03125 -8.421875 C 13.03125 -7.441406 12.796875 -6.59375 12.328125 -5.875 C 11.859375 -5.164062 11.1875 -4.625 10.3125 -4.25 L 13.28125 0 Z M 9.9375 -8.421875 C 9.9375 -9.171875 9.695312 -9.742188 9.21875 -10.140625 C 8.738281 -10.535156 8.039062 -10.734375 7.125 -10.734375 L 4.625 -10.734375 L 4.625 -6.125 L 7.125 -6.125 C 8.039062 -6.125 8.738281 -6.320312 9.21875 -6.71875 C 9.695312 -7.125 9.9375 -7.691406 9.9375 -8.421875 Z M 9.9375 -8.421875 "/></g></g></g><g fill="#000000" fill-opacity="1"><g transform="translate(192.284439, 196.681965)"><g><path d="M 11.8125 -2.453125 L 11.8125 0 L 1.5625 0 L 1.5625 -13.21875 L 11.5625 -13.21875 L 11.5625 -10.765625 L 4.609375 -10.765625 L 4.609375 -7.890625 L 10.75 -7.890625 L 10.75 -5.515625 L 4.609375 -5.515625 L 4.609375 -2.453125 Z M 11.8125 -2.453125 "/></g></g></g><g fill="#000000" fill-opacity="1"><g transform="translate(211.492631, 196.681965)"><g/></g></g><g fill="#000000" fill-opacity="1"><g transform="translate(223.372759, 196.681965)"><g><path d="M 7.296875 -13.21875 C 8.460938 -13.21875 9.476562 -13.019531 10.34375 -12.625 C 11.207031 -12.238281 11.867188 -11.6875 12.328125 -10.96875 C 12.796875 -10.257812 13.03125 -9.410156 13.03125 -8.421875 C 13.03125 -7.453125 12.796875 -6.601562 12.328125 -5.875 C 11.867188 -5.15625 11.207031 -4.601562 10.34375 -4.21875 C 9.476562 -3.832031 8.460938 -3.640625 7.296875 -3.640625 L 4.625 -3.640625 L 4.625 0 L 1.5625 0 L 1.5625 -13.21875 Z M 7.125 -6.140625 C 8.039062 -6.140625 8.738281 -6.335938 9.21875 -6.734375 C 9.695312 -7.128906 9.9375 -7.691406 9.9375 -8.421875 C 9.9375 -9.171875 9.695312 -9.742188 9.21875 -10.140625 C 8.738281 -10.535156 8.039062 -10.734375 7.125 -10.734375 L 4.625 -10.734375 L 4.625 -6.140625 Z M 7.125 -6.140625 "/></g></g></g><g fill="#000000" fill-opacity="1"><g transform="translate(243.733051, 196.681965)"><g><path d="M 11.8125 -2.453125 L 11.8125 0 L 1.5625 0 L 1.5625 -13.21875 L 11.5625 -13.21875 L 11.5625 -10.765625 L 4.609375 -10.765625 L 4.609375 -7.890625 L 10.75 -7.890625 L 10.75 -5.515625 L 4.609375 -5.515625 L 4.609375 -2.453125 Z M 11.8125 -2.453125 "/></g></g></g><g fill="#000000" fill-opacity="1"><g transform="translate(262.941242, 196.681965)"><g><path d="M 10 0 L 7.4375 -3.6875 L 4.625 -3.6875 L 4.625 0 L 1.5625 0 L 1.5625 -13.21875 L 7.296875 -13.21875 C 8.460938 -13.21875 9.476562 -13.019531 10.34375 -12.625 C 11.207031 -12.238281 11.867188 -11.6875 12.328125 -10.96875 C 12.796875 -10.257812 13.03125 -9.410156 13.03125 -8.421875 C 13.03125 -7.441406 12.796875 -6.59375 12.328125 -5.875 C 11.859375 -5.164062 11.1875 -4.625 10.3125 -4.25 L 13.28125 0 Z M 9.9375 -8.421875 C 9.9375 -9.171875 9.695312 -9.742188 9.21875 -10.140625 C 8.738281 -10.535156 8.039062 -10.734375 7.125 -10.734375 L 4.625 -10.734375 L 4.625 -6.125 L 7.125 -6.125 C 8.039062 -6.125 8.738281 -6.320312 9.21875 -6.71875 C 9.695312 -7.125 9.9375 -7.691406 9.9375 -8.421875 Z M 9.9375 -8.421875 "/></g></g></g><g fill="#000000" fill-opacity="1"><g transform="translate(283.358188, 196.681965)"><g><path d="M 10 0 L 7.4375 -3.6875 L 4.625 -3.6875 L 4.625 0 L 1.5625 0 L 1.5625 -13.21875 L 7.296875 -13.21875 C 8.460938 -13.21875 9.476562 -13.019531 10.34375 -12.625 C 11.207031 -12.238281 11.867188 -11.6875 12.328125 -10.96875 C 12.796875 -10.257812 13.03125 -9.410156 13.03125 -8.421875 C 13.03125 -7.441406 12.796875 -6.59375 12.328125 -5.875 C 11.859375 -5.164062 11.1875 -4.625 10.3125 -4.25 L 13.28125 0 Z M 9.9375 -8.421875 C 9.9375 -9.171875 9.695312 -9.742188 9.21875 -10.140625 C 8.738281 -10.535156 8.039062 -10.734375 7.125 -10.734375 L 4.625 -10.734375 L 4.625 -6.125 L 7.125 -6.125 C 8.039062 -6.125 8.738281 -6.320312 9.21875 -6.71875 C 9.695312 -7.125 9.9375 -7.691406 9.9375 -8.421875 Z M 9.9375 -8.421875 "/></g></g></g><g fill="#000000" fill-opacity="1"><g transform="translate(303.775149, 196.681965)"><g><path d="M 10.28125 -2.828125 L 4.140625 -2.828125 L 2.96875 0 L -0.171875 0 L 5.71875 -13.21875 L 8.75 -13.21875 L 14.65625 0 L 11.453125 0 Z M 9.3125 -5.15625 L 7.21875 -10.21875 L 5.125 -5.15625 Z M 9.3125 -5.15625 "/></g></g></g><g fill="#000000" fill-opacity="1"><g transform="translate(324.777597, 196.681965)"><g><path d="M 5.90625 0.234375 C 4.863281 0.234375 3.851562 0.09375 2.875 -0.1875 C 1.90625 -0.476562 1.125 -0.847656 0.53125 -1.296875 L 1.5625 -3.609375 C 2.132812 -3.191406 2.8125 -2.859375 3.59375 -2.609375 C 4.375 -2.359375 5.15625 -2.234375 5.9375 -2.234375 C 6.800781 -2.234375 7.441406 -2.359375 7.859375 -2.609375 C 8.273438 -2.867188 8.484375 -3.210938 8.484375 -3.640625 C 8.484375 -3.960938 8.359375 -4.222656 8.109375 -4.421875 C 7.867188 -4.628906 7.554688 -4.796875 7.171875 -4.921875 C 6.785156 -5.054688 6.265625 -5.195312 5.609375 -5.34375 C 4.597656 -5.582031 3.769531 -5.820312 3.125 -6.0625 C 2.488281 -6.300781 1.941406 -6.6875 1.484375 -7.21875 C 1.023438 -7.75 0.796875 -8.453125 0.796875 -9.328125 C 0.796875 -10.097656 1.003906 -10.796875 1.421875 -11.421875 C 1.835938 -12.046875 2.460938 -12.539062 3.296875 -12.90625 C 4.128906 -13.269531 5.148438 -13.453125 6.359375 -13.453125 C 7.203125 -13.453125 8.023438 -13.347656 8.828125 -13.140625 C 9.640625 -12.941406 10.347656 -12.65625 10.953125 -12.28125 L 10.015625 -9.953125 C 8.785156 -10.648438 7.5625 -11 6.34375 -11 C 5.488281 -11 4.851562 -10.859375 4.4375 -10.578125 C 4.03125 -10.296875 3.828125 -9.929688 3.828125 -9.484375 C 3.828125 -9.023438 4.0625 -8.6875 4.53125 -8.46875 C 5.007812 -8.25 5.734375 -8.035156 6.703125 -7.828125 C 7.710938 -7.585938 8.535156 -7.347656 9.171875 -7.109375 C 9.816406 -6.867188 10.367188 -6.488281 10.828125 -5.96875 C 11.285156 -5.445312 11.515625 -4.75 11.515625 -3.875 C 11.515625 -3.113281 11.300781 -2.421875 10.875 -1.796875 C 10.457031 -1.179688 9.828125 -0.6875 8.984375 -0.3125 C 8.140625 0.0507812 7.113281 0.234375 5.90625 0.234375 Z M 5.90625 0.234375 "/></g></g></g><g fill="#000000" fill-opacity="1"><g transform="translate(158.515131, 299.270524)"><g><path d="M 12.78125 -8.328125 L 9.96875 0 L 9.046875 0 L 6.609375 -7.09375 L 4.15625 0 L 3.25 0 L 0.4375 -8.328125 L 1.34375 -8.328125 L 3.75 -1.171875 L 6.234375 -8.328125 L 7.046875 -8.328125 L 9.5 -1.125 L 11.9375 -8.328125 Z M 12.78125 -8.328125 "/></g></g></g><g fill="#000000" fill-opacity="1"><g transform="translate(180.02467, 299.270524)"><g><path d="M 7.234375 -0.765625 L 7.234375 0 L 1.359375 0 L 1.359375 -8.328125 L 7.0625 -8.328125 L 7.0625 -7.5625 L 2.234375 -7.5625 L 2.234375 -4.609375 L 6.546875 -4.609375 L 6.546875 -3.859375 L 2.234375 -3.859375 L 2.234375 -0.765625 Z M 7.234375 -0.765625 "/></g></g></g><g fill="#000000" fill-opacity="1"><g transform="translate(196.275784, 299.270524)"><g><path d="M 6.59375 -4.296875 C 7.144531 -4.171875 7.566406 -3.929688 7.859375 -3.578125 C 8.160156 -3.234375 8.3125 -2.78125 8.3125 -2.21875 C 8.3125 -1.507812 8.046875 -0.960938 7.515625 -0.578125 C 6.992188 -0.191406 6.21875 0 5.1875 0 L 1.359375 0 L 1.359375 -8.328125 L 4.953125 -8.328125 C 5.878906 -8.328125 6.597656 -8.140625 7.109375 -7.765625 C 7.617188 -7.390625 7.875 -6.863281 7.875 -6.1875 C 7.875 -5.726562 7.757812 -5.335938 7.53125 -5.015625 C 7.300781 -4.691406 6.988281 -4.453125 6.59375 -4.296875 Z M 2.234375 -7.59375 L 2.234375 -4.578125 L 4.890625 -4.578125 C 5.554688 -4.578125 6.070312 -4.703125 6.4375 -4.953125 C 6.800781 -5.210938 6.984375 -5.59375 6.984375 -6.09375 C 6.984375 -6.582031 6.800781 -6.953125 6.4375 -7.203125 C 6.070312 -7.460938 5.554688 -7.59375 4.890625 -7.59375 Z M 5.171875 -0.71875 C 5.921875 -0.71875 6.484375 -0.84375 6.859375 -1.09375 C 7.242188 -1.351562 7.4375 -1.753906 7.4375 -2.296875 C 7.4375 -3.335938 6.679688 -3.859375 5.171875 -3.859375 L 2.234375 -3.859375 L 2.234375 -0.71875 Z M 5.171875 -0.71875 "/></g></g></g><g fill="#000000" fill-opacity="1"><g transform="translate(110.649028, 315.132948)"><g><path d="M 1.359375 -8.328125 L 4.75 -8.328125 C 5.625 -8.328125 6.394531 -8.148438 7.0625 -7.796875 C 7.738281 -7.441406 8.265625 -6.945312 8.640625 -6.3125 C 9.015625 -5.6875 9.203125 -4.96875 9.203125 -4.15625 C 9.203125 -3.351562 9.015625 -2.632812 8.640625 -2 C 8.265625 -1.375 7.738281 -0.882812 7.0625 -0.53125 C 6.394531 -0.175781 5.625 0 4.75 0 L 1.359375 0 Z M 4.703125 -0.765625 C 5.429688 -0.765625 6.066406 -0.90625 6.609375 -1.1875 C 7.160156 -1.476562 7.582031 -1.878906 7.875 -2.390625 C 8.175781 -2.898438 8.328125 -3.488281 8.328125 -4.15625 C 8.328125 -4.820312 8.175781 -5.410156 7.875 -5.921875 C 7.582031 -6.429688 7.160156 -6.832031 6.609375 -7.125 C 6.066406 -7.414062 5.429688 -7.5625 4.703125 -7.5625 L 2.234375 -7.5625 L 2.234375 -0.765625 Z M 4.703125 -0.765625 "/></g></g></g><g fill="#000000" fill-opacity="1"><g transform="translate(128.767945, 315.132948)"><g><path d="M 7.234375 -0.765625 L 7.234375 0 L 1.359375 0 L 1.359375 -8.328125 L 7.0625 -8.328125 L 7.0625 -7.5625 L 2.234375 -7.5625 L 2.234375 -4.609375 L 6.546875 -4.609375 L 6.546875 -3.859375 L 2.234375 -3.859375 L 2.234375 -0.765625 Z M 7.234375 -0.765625 "/></g></g></g><g fill="#000000" fill-opacity="1"><g transform="translate(145.019059, 315.132948)"><g><path d="M 8.28125 -8.328125 L 4.59375 0 L 3.71875 0 L 0.03125 -8.328125 L 0.984375 -8.328125 L 4.171875 -1.09375 L 7.390625 -8.328125 Z M 8.28125 -8.328125 "/></g></g></g><g fill="#000000" fill-opacity="1"><g transform="translate(161.615174, 315.132948)"><g><path d="M 7.234375 -0.765625 L 7.234375 0 L 1.359375 0 L 1.359375 -8.328125 L 7.0625 -8.328125 L 7.0625 -7.5625 L 2.234375 -7.5625 L 2.234375 -4.609375 L 6.546875 -4.609375 L 6.546875 -3.859375 L 2.234375 -3.859375 L 2.234375 -0.765625 Z M 7.234375 -0.765625 "/></g></g></g><g fill="#000000" fill-opacity="1"><g transform="translate(177.866286, 315.132948)"><g><path d="M 1.359375 -8.328125 L 2.234375 -8.328125 L 2.234375 -0.765625 L 6.890625 -0.765625 L 6.890625 0 L 1.359375 0 Z M 1.359375 -8.328125 "/></g></g></g><g fill="#000000" fill-opacity="1"><g transform="translate(193.165646, 315.132948)"><g><path d="M 5 0.078125 C 4.164062 0.078125 3.414062 -0.101562 2.75 -0.46875 C 2.082031 -0.84375 1.5625 -1.347656 1.1875 -1.984375 C 0.8125 -2.628906 0.625 -3.351562 0.625 -4.15625 C 0.625 -4.957031 0.8125 -5.675781 1.1875 -6.3125 C 1.5625 -6.957031 2.082031 -7.460938 2.75 -7.828125 C 3.414062 -8.203125 4.164062 -8.390625 5 -8.390625 C 5.820312 -8.390625 6.5625 -8.207031 7.21875 -7.84375 C 7.882812 -7.476562 8.40625 -6.972656 8.78125 -6.328125 C 9.164062 -5.679688 9.359375 -4.957031 9.359375 -4.15625 C 9.359375 -3.351562 9.164062 -2.628906 8.78125 -1.984375 C 8.40625 -1.335938 7.882812 -0.832031 7.21875 -0.46875 C 6.5625 -0.101562 5.820312 0.078125 5 0.078125 Z M 5 -0.71875 C 5.65625 -0.71875 6.25 -0.863281 6.78125 -1.15625 C 7.3125 -1.457031 7.726562 -1.867188 8.03125 -2.390625 C 8.332031 -2.921875 8.484375 -3.507812 8.484375 -4.15625 C 8.484375 -4.8125 8.332031 -5.398438 8.03125 -5.921875 C 7.726562 -6.453125 7.3125 -6.863281 6.78125 -7.15625 C 6.25 -7.457031 5.65625 -7.609375 5 -7.609375 C 4.332031 -7.609375 3.734375 -7.457031 3.203125 -7.15625 C 2.671875 -6.863281 2.25 -6.453125 1.9375 -5.921875 C 1.632812 -5.398438 1.484375 -4.8125 1.484375 -4.15625 C 1.484375 -3.507812 1.632812 -2.921875 1.9375 -2.390625 C 2.25 -1.867188 2.671875 -1.457031 3.203125 -1.15625 C 3.734375 -0.863281 4.332031 -0.71875 5 -0.71875 Z M 5 -0.71875 "/></g></g></g><g fill="#000000" fill-opacity="1"><g transform="translate(211.439226, 315.132948)"><g><path d="M 4.46875 -8.328125 C 5.53125 -8.328125 6.363281 -8.070312 6.96875 -7.5625 C 7.570312 -7.050781 7.875 -6.351562 7.875 -5.46875 C 7.875 -4.582031 7.570312 -3.882812 6.96875 -3.375 C 6.363281 -2.875 5.53125 -2.625 4.46875 -2.625 L 2.234375 -2.625 L 2.234375 0 L 1.359375 0 L 1.359375 -8.328125 Z M 4.453125 -3.40625 C 5.273438 -3.40625 5.898438 -3.582031 6.328125 -3.9375 C 6.765625 -4.300781 6.984375 -4.8125 6.984375 -5.46875 C 6.984375 -6.144531 6.765625 -6.660156 6.328125 -7.015625 C 5.898438 -7.378906 5.273438 -7.5625 4.453125 -7.5625 L 2.234375 -7.5625 L 2.234375 -3.40625 Z M 4.453125 -3.40625 "/></g></g></g><g fill="#000000" fill-opacity="1"><g transform="translate(228.27328, 315.132948)"><g><path d="M 7.234375 -0.765625 L 7.234375 0 L 1.359375 0 L 1.359375 -8.328125 L 7.0625 -8.328125 L 7.0625 -7.5625 L 2.234375 -7.5625 L 2.234375 -4.609375 L 6.546875 -4.609375 L 6.546875 -3.859375 L 2.234375 -3.859375 L 2.234375 -0.765625 Z M 7.234375 -0.765625 "/></g></g></g><g fill="#000000" fill-opacity="1"><g transform="translate(244.524399, 315.132948)"><g><path d="M 7.046875 0 L 5.140625 -2.671875 C 4.921875 -2.648438 4.695312 -2.640625 4.46875 -2.640625 L 2.234375 -2.640625 L 2.234375 0 L 1.359375 0 L 1.359375 -8.328125 L 4.46875 -8.328125 C 5.53125 -8.328125 6.363281 -8.070312 6.96875 -7.5625 C 7.570312 -7.050781 7.875 -6.351562 7.875 -5.46875 C 7.875 -4.820312 7.707031 -4.273438 7.375 -3.828125 C 7.050781 -3.378906 6.582031 -3.054688 5.96875 -2.859375 L 8 0 Z M 4.453125 -3.390625 C 5.273438 -3.390625 5.898438 -3.570312 6.328125 -3.9375 C 6.765625 -4.300781 6.984375 -4.8125 6.984375 -5.46875 C 6.984375 -6.144531 6.765625 -6.660156 6.328125 -7.015625 C 5.898438 -7.378906 5.273438 -7.5625 4.453125 -7.5625 L 2.234375 -7.5625 L 2.234375 -3.390625 Z M 4.453125 -3.390625 "/></g></g></g></svg>